<?xml version="1.0" encoding="utf-8"?>
<!-- Generator: Adobe Illustrator 22.1.0, SVG Export Plug-In . SVG Version: 6.00 Build 0)  -->
<svg version="1.1" id="Layer_1" xmlns="http://www.w3.org/2000/svg" xmlns:xlink="http://www.w3.org/1999/xlink" x="0px" y="0px"
	 viewBox="0 0 676.7 909.7" style="enable-background:new 0 0 676.7 909.7;" xml:space="preserve">
<style type="text/css">
	.st0{fill:#F54C4C;}
	.st1{fill:#FFFFFF;}
</style>
<g>
	<path class="st0" d="M338.1,900.9c-14-19.1-33.9-45.6-56.7-75.8c-70.2-93.3-176.3-234.2-239-333C17.6,452.8,5,401.1,5,338.3
		c0-89,34.7-172.7,97.6-235.7C165.6,39.7,249.3,5,338.3,5c89,0,172.7,34.7,235.7,97.6c63,63,97.6,146.7,97.6,235.7
		c0,51.4-12.7,103.3-37.8,154.2c-40.2,81.8-134.7,201.2-210.7,297.2C387.2,835.3,355.7,875.2,338.1,900.9z"/>
	<path d="M338.3,10c44.3,0,87.3,8.7,127.8,25.8c39.1,16.5,74.2,40.2,104.4,70.4c30.2,30.2,53.8,65.3,70.4,104.4
		C658,251,666.7,294,666.7,338.3c0,50.6-12.5,101.7-37.2,152c-40,81.3-134.3,200.5-210.1,296.3c-33.5,42.4-63.1,79.8-81.3,105.6
		c-13.7-18.6-32-42.9-52.6-70.2C215.3,728.9,109.3,588,46.7,489.4C22.4,451,10,400.2,10,338.3c0-44.3,8.7-87.3,25.8-127.8
		c16.5-39.1,40.2-74.2,70.4-104.4c30.2-30.2,65.3-53.8,104.4-70.4C251,18.7,294,10,338.3,10 M338.3,0C151.5,0,0,151.5,0,338.3
		c0,56.4,10.1,112,38.3,156.4c85,133.9,246.3,340.9,300.1,414.9c47.3-72.8,238.4-289.5,300.1-414.9c23.3-47.4,38.3-100,38.3-156.4
		C676.7,151.5,525.2,0,338.3,0L338.3,0z"/>
</g>
<circle class="st1" cx="181.3" cy="296.4" r="61.8"/>
<path class="st1" d="M410.9,553.1c95.4-32.3,146.6-135.8,114.3-231.3L179.6,438.7C211.9,534.2,315.4,585.4,410.9,553.1z"/>
<circle class="st1" cx="437.4" cy="209.7" r="61.8"/>
</svg>
