<?xml version="1.0" encoding="utf-8"?>
<!-- Generator: Adobe Illustrator 22.1.0, SVG Export Plug-In . SVG Version: 6.00 Build 0)  -->
<svg version="1.1" id="Layer_1" xmlns="http://www.w3.org/2000/svg" xmlns:xlink="http://www.w3.org/1999/xlink" x="0px" y="0px"
	 viewBox="0 0 676.7 909.7" style="enable-background:new 0 0 676.7 909.7;" xml:space="preserve">
<style type="text/css">
	.st0{fill:#F54C4C;}
	.st1{fill:#FFFFFF;}
</style>
<path class="st0" d="M638.4,494.7c23.3-47.4,38.3-100,38.3-156.4C676.7,151.5,525.2,0,338.3,0C151.5,0,0,151.5,0,338.3
	c0,56.4,10.1,112,38.3,156.4c85,133.9,246.3,340.9,300.1,414.9C385.6,836.8,576.7,620.2,638.4,494.7z"/>
<circle class="st1" cx="181.3" cy="296.4" r="61.8"/>
<path class="st1" d="M410.9,553.1c95.4-32.3,146.6-135.8,114.3-231.3L179.6,438.7C211.9,534.2,315.4,585.4,410.9,553.1z"/>
<circle class="st1" cx="437.4" cy="209.7" r="61.8"/>
</svg>
