<?xml version="1.0" encoding="utf-8"?>
<!-- Generator: Adobe Illustrator 22.1.0, SVG Export Plug-In . SVG Version: 6.00 Build 0)  -->
<svg version="1.1" id="Layer_1" xmlns="http://www.w3.org/2000/svg" xmlns:xlink="http://www.w3.org/1999/xlink" x="0px" y="0px"
	 viewBox="0 0 676.7 909.7" style="enable-background:new 0 0 676.7 909.7;" xml:space="preserve">
<style type="text/css">
	.st0{fill:#F54C4C;}
	.st1{fill:#FFFFFF;}
</style>
<g>
	<path class="st0" d="M338.1,896.6c-13.9-18.9-33-44.3-54.6-73c-70.2-93.2-176.2-234.2-238.8-332.9C20,451.9,7.5,400.6,7.5,338.3
		c0-88.4,34.4-171.4,96.9-233.9C166.9,41.9,250,7.5,338.3,7.5s171.4,34.4,233.9,96.9c62.5,62.5,96.9,145.6,96.9,233.9
		c0,51-12.6,102.5-37.5,153.1c-40.1,81.5-134.5,200.9-210.4,296.8C386.5,832.1,356,870.7,338.1,896.6z"/>
	<path d="M338.3,15c43.7,0,86,8.5,125.8,25.4C502.7,56.7,537.3,80,567,109.7c29.7,29.7,53,64.3,69.3,102.8
		c16.9,39.9,25.4,82.2,25.4,125.8c0,49.8-12.4,100.2-36.7,149.8C585.2,568.9,491,687.9,415.4,783.6c-31.2,39.4-59,74.6-77.5,100.2
		c-13.2-17.8-29.9-40-48.5-64.7c-70.1-93.1-176-233.9-238.5-332.4C27.1,449.1,15,399.2,15,338.3c0-43.7,8.5-86,25.4-125.8
		C56.7,174,80,139.4,109.7,109.7c29.7-29.7,64.3-53,102.8-69.3C252.3,23.5,294.7,15,338.3,15 M338.3,0C151.5,0,0,151.5,0,338.3
		c0,56.4,10.1,112,38.3,156.4c85,133.9,246.3,340.9,300.1,414.9c47.3-72.8,238.4-289.5,300.1-414.9c23.3-47.4,38.3-100,38.3-156.4
		C676.7,151.5,525.2,0,338.3,0L338.3,0z"/>
</g>
<circle class="st1" cx="181.3" cy="296.4" r="61.8"/>
<path class="st1" d="M410.9,553.1c95.4-32.3,146.6-135.8,114.3-231.3L179.6,438.7C211.9,534.2,315.4,585.4,410.9,553.1z"/>
<circle class="st1" cx="437.4" cy="209.7" r="61.8"/>
</svg>
